# xmcd
#
# Track frame offsets:
#	150
#	11050
#	22828
#	35211
#	48718
#	65603
#	73974
#	86830
#	97243
#	109075
#	117407
#	127463
#	135774
#	145149
#	155546
#	169191
#	180185
#	193291
#	203396
#
# Disc length: 2893 seconds
# Revision: 0
# Processed by: cddbd v1.5.2PL0 Copyright (c) Steve Scherf et al.
# Submitted via: dBpowerAMP V12.0
#
DISCID=1c0b4b13
DTITLE=Various Artist - Rare Mod 2: A Second Volume of 60's Underground Rhythm'n'Blues, Psych and Soul
DYEAR=1900
DGENRE=
TTITLE0=The Richard Kent Style - Just a Little Understanding
TTITLE1=Mac Kissoon - 1000 Ways of Loving You
TTITLE2=The Donnie Elbert Band - A Love I Believe In
TTITLE3=The Amboy Dukes - More and More
TTITLE4=The Nocturnes - Hay, That's What Horses Eat
TTITLE5=C-Jam Blues - Gonna Find a Cave
TTITLE6=Chances Are - I'm Talking 'bout You
TTITLE7=The Gass Company - She's Got the Time
TTITLE8=The Fleur de Lys - Nothing To Say
TTITLE9=The Summer Set - Oh Miss Stone
TTITLE10=Parker's Mood - Don't Mess With Cupid
TTITLE11=The Booker T's - Stupidity
TTITLE12=The Amboy Dukes - You Better Find Yourself Someone
TTITLE13=The Nocturnes - Night Owl
TTITLE14=The Inner Sect - You're Not the Kind to Know
TTITLE15=The Spartans - Lies
TTITLE16=The Westsiders - Don't Lie To Me
TTITLE17=The Fleur de Lys - I Walk The Sands
TTITLE18=Dave Anthony's Moods - See My Soul
EXTD=
EXTT0=
EXTT1=
EXTT2=
EXTT3=
EXTT4=
EXTT5=
EXTT6=
EXTT7=
EXTT8=
EXTT9=
EXTT10=
EXTT11=
EXTT12=
EXTT13=
EXTT14=
EXTT15=
EXTT16=
EXTT17=
EXTT18=
PLAYORDER=
